<svg width="48" height="48" viewBox="0 0 48 48" fill="none" xmlns="http://www.w3.org/2000/svg">
<path d="M0 9C0 4.02944 4.02944 0 9 0H39C43.9706 0 48 4.02944 48 9V39C48 43.9706 43.9706 48 39 48H9C4.02944 48 0 43.9706 0 39V9Z" fill="#F7DF1E"/>
<path d="M12.621 40.1123L16.2943 37.8893C17.0029 39.1457 17.6475 40.2088 19.1938 40.2088C20.676 40.2088 21.6105 39.629 21.6105 37.3738V22.0366H26.1213V37.4375C26.1213 42.1095 23.3827 44.2361 19.3872 44.2361C15.7787 44.2361 13.6841 42.3672 12.6209 40.1119" fill="black"/>
<path d="M28.5714 39.629L32.2443 37.5024C33.2111 39.0814 34.4677 40.2412 36.6908 40.2412C38.5599 40.2412 39.7517 39.3067 39.7517 38.0179C39.7517 36.4713 38.5274 35.9235 36.4652 35.0216L35.3378 34.538C32.0834 33.1528 29.9245 31.4129 29.9245 27.7397C29.9245 24.3565 32.5021 21.7787 36.5298 21.7787C39.3975 21.7787 41.4596 22.7777 42.9416 25.3876L39.4295 27.6429C38.6562 26.2575 37.8187 25.7099 36.5299 25.7099C35.2089 25.7099 34.3711 26.5476 34.3711 27.6429C34.3711 28.9962 35.2089 29.5441 37.1419 30.3819L38.2695 30.8651C42.1038 32.5085 44.2626 34.1838 44.2626 37.9534C44.2626 42.0135 41.0729 44.2365 36.7876 44.2365C32.5989 44.2365 29.8924 42.2389 28.5715 39.629" fill="black"/>
</svg>
