<svg width="48" height="48" viewBox="0 0 48 48" fill="none" xmlns="http://www.w3.org/2000/svg">
<path d="M39.4656 15.5418C38.9677 15.3494 38.4517 15.1673 37.9205 14.9951C38.0078 14.595 38.0879 14.2 38.1592 13.8118C39.3288 7.43682 38.5641 2.3011 35.9526 0.610209C33.4486 -1.01114 29.3534 0.679376 25.2174 4.7208C24.8197 5.10942 24.4209 5.52087 24.0222 5.95208C23.7566 5.66678 23.4914 5.39107 23.2269 5.12735C18.8923 0.806006 14.5475 -1.01507 11.9386 0.680719C9.43695 2.30676 8.6961 7.13483 9.74897 13.1764C9.85065 13.76 9.96949 14.3559 10.1039 14.9618C9.48898 15.1578 8.89535 15.3667 8.32735 15.589C3.2455 17.5784 0 20.6961 0 23.9301C0 27.2702 3.48405 30.6203 8.77718 32.6517C9.1949 32.812 9.62833 32.9635 10.075 33.1074C9.93002 33.7627 9.80391 34.4049 9.69805 35.0313C8.69414 40.968 9.47813 45.682 11.9731 47.2978C14.5502 48.9664 18.8753 47.2512 23.0869 43.1177C23.4198 42.791 23.7538 42.4445 24.0885 42.0813C24.5223 42.5503 24.9554 42.9942 25.3862 43.4105C29.4656 47.3521 33.4946 48.9437 35.9873 47.3234C38.5619 45.65 39.3986 40.586 38.3123 34.4249C38.2293 33.9543 38.1328 33.4736 38.0244 32.9843C38.3281 32.8835 38.6263 32.7794 38.917 32.6712C44.4197 30.6241 48 27.3148 48 23.9301C48 20.6844 44.6498 17.5456 39.4656 15.5418ZM38.2721 30.4858C38.0097 30.5834 37.7404 30.6777 37.4659 30.7691C36.8585 28.6098 36.0386 26.3136 35.0353 23.9413C35.9927 21.6255 36.7809 19.3588 37.3713 17.2134C37.8624 17.373 38.3389 17.5412 38.7982 17.7188C43.24 19.4357 45.9495 21.9741 45.9495 23.9301C45.9495 26.0136 43.0233 28.7182 38.2721 30.4858ZM36.3007 34.872C36.781 37.5964 36.8497 40.0595 36.5315 41.9851C36.2456 43.7153 35.6707 44.8689 34.9598 45.3309C33.4471 46.314 30.2122 45.0361 26.7235 41.6652C26.3235 41.2788 25.9207 40.8662 25.5165 40.4295C26.8691 38.7687 28.2208 36.8378 29.5401 34.6935C31.8605 34.4623 34.0528 34.0843 36.0409 33.5683C36.1388 34.0118 36.2258 34.4467 36.3007 34.872ZM16.3643 45.161C14.8864 45.747 13.7093 45.7638 12.9977 45.3032C11.4836 44.3226 10.8542 40.5377 11.7128 35.4606C11.8111 34.8792 11.9282 34.2819 12.0631 33.6714C14.0294 34.1596 16.2056 34.5109 18.5316 34.7226C19.8598 36.821 21.2506 38.7497 22.6521 40.4385C22.3459 40.7704 22.0409 41.0864 21.7376 41.3841C19.8752 43.2119 18.009 44.5087 16.3643 45.161ZM9.44037 30.473C7.09984 29.5748 5.16695 28.4074 3.84204 27.1336C2.65152 25.9888 2.05046 24.8523 2.05046 23.9301C2.05046 21.9676 4.65627 19.4645 9.00232 17.7631C9.52965 17.5567 10.0817 17.3621 10.6545 17.1794C11.2552 19.3731 12.0431 21.6668 12.994 23.9861C12.0308 26.3399 11.2317 28.6701 10.6252 30.8896C10.2168 30.7578 9.82108 30.6191 9.44037 30.473ZM11.7613 12.7343C10.8593 7.55798 11.4584 3.65317 12.9659 2.67332C14.5718 1.62949 18.1227 3.11777 21.8653 6.84904C22.1045 7.08753 22.3447 7.33715 22.5856 7.59539C21.1909 9.27679 19.8129 11.191 18.4965 13.277C16.239 13.5119 14.0781 13.8893 12.0913 14.3947C11.9664 13.8305 11.8557 13.2762 11.7613 12.7343ZM32.4664 18.4747C31.9914 17.5536 31.5038 16.6542 31.0067 15.7794C32.5382 15.9968 34.0055 16.2854 35.3835 16.6385C34.9698 18.1272 34.4542 19.6837 33.8472 21.2793C33.4118 20.3512 32.9513 19.4154 32.4664 18.4747ZM24.0229 9.24082C24.9687 10.3913 25.9159 11.6759 26.8475 13.0696C25.9087 13.0198 24.9583 12.9939 24 12.9939C23.0508 12.9939 22.1073 13.0192 21.1743 13.0681C22.1069 11.6874 23.0623 10.4046 24.0229 9.24082ZM15.5254 18.4907C15.0509 19.4144 14.5989 20.3451 14.1704 21.2776C13.5732 19.6875 13.0624 18.1239 12.6451 16.6141C14.0146 16.27 15.475 15.9887 16.9968 15.7754C16.4927 16.6583 16.0011 17.5643 15.5254 18.4905V18.4907ZM17.0406 32.249C15.4684 32.0521 13.986 31.7852 12.6168 31.4506C13.0408 29.9139 13.5629 28.3169 14.1727 26.6926C14.6024 27.6243 15.0561 28.5555 15.5335 29.4812H15.5336C16.0198 30.4243 16.5235 31.3481 17.0406 32.249ZM24.0796 38.7817C23.1078 37.6043 22.1384 36.302 21.1916 34.9011C22.1107 34.9416 23.0477 34.9623 24 34.9623C24.9784 34.9623 25.9455 34.9375 26.8975 34.8899C25.9628 36.3161 25.019 37.6205 24.0796 38.7817ZM33.8668 26.6098C34.5084 28.2516 35.0492 29.8403 35.4786 31.3508C34.0869 31.7073 32.5843 31.9944 31.0011 32.2078C31.4994 31.3212 31.9912 30.4064 32.4746 29.4654C32.9635 28.5133 33.4278 27.5599 33.8668 26.6098ZM30.6984 28.3152C29.948 29.7759 29.1777 31.1704 28.3957 32.4867C26.9713 32.601 25.4998 32.6599 24 32.6599C22.5063 32.6599 21.0533 32.6078 19.6541 32.5058C18.8406 31.1723 18.0535 29.7737 17.308 28.3277H17.3081C16.5646 26.8857 15.8802 25.4314 15.2601 23.9854C15.88 22.5359 16.5626 21.0801 17.3019 19.6406L17.3017 19.6409C18.043 18.1976 18.8231 16.8058 19.6292 15.4806C21.0567 15.3595 22.5205 15.2962 23.9999 15.2962H24C25.486 15.2962 26.9518 15.3599 28.3789 15.4821C29.1726 16.7977 29.9474 18.1849 30.6916 19.6284C31.4442 21.0881 32.1356 22.5343 32.7609 23.9526C32.1375 25.3954 31.4477 26.8561 30.6984 28.3152ZM34.9284 2.60483C36.5357 3.64559 37.1608 7.843 36.1509 13.3471C36.0865 13.6983 36.014 14.056 35.9352 14.4186C33.9438 13.9026 31.7813 13.5187 29.5172 13.2802C28.1983 11.1714 26.8315 9.25415 25.4596 7.59434C25.8285 7.19593 26.1968 6.81604 26.5636 6.45755C30.1073 2.99488 33.4193 1.62776 34.9284 2.60483ZM24 19.1175C26.3672 19.1175 28.2862 21.2721 28.2862 23.9301C28.2862 26.588 26.3672 28.7427 24 28.7427C21.6328 28.7427 19.7138 26.588 19.7138 23.9301C19.7138 21.2721 21.6328 19.1175 24 19.1175Z" fill="#00D8FF"/>
</svg>
